HIERARCHY
ROOT Hips
{
	OFFSET 0.000000 0.000000 0.000000
	CHANNELS 6 Xposition Yposition Zposition Zrotation Yrotation Xrotation 
	JOINT LowerBack
	{
		OFFSET 0.000000 0.000000 0.000000
		CHANNELS 3 Zrotation Yrotation Xrotation
		JOINT Spine
		{
			OFFSET 0.028270 2.035590 -0.193380
			CHANNELS 3 Zrotation Yrotation Xrotation
			JOINT Spine1
			{
				OFFSET 0.056720 2.048850 -0.042750
				CHANNELS 3 Zrotation Yrotation Xrotation
				JOINT Neck
				{
					OFFSET 0.000000 0.000000 0.000000
					CHANNELS 3 Zrotation Yrotation Xrotation
					JOINT Neck1
					{
						OFFSET -0.054170 1.746240 0.172020
						CHANNELS 3 Zrotation Yrotation Xrotation
						JOINT Head
						{
							OFFSET 0.104070 1.761360 -0.123970
							CHANNELS 3 Zrotation Yrotation Xrotation
							End Site
							{
								OFFSET 0.000000 0.000000 0.000000
							}
						}
					}
				}
				JOINT LeftShoulder
				{
					OFFSET 0.000000 0.000000 0.000000
					CHANNELS 3 Zrotation Yrotation Xrotation
					JOINT LeftArm
					{
						OFFSET 3.362410 1.200890 -0.311210
						CHANNELS 3 Zrotation Yrotation Xrotation
						JOINT LeftForeArm
						{
							OFFSET 4.983000 -0.000000 -0.000000
							CHANNELS 3 Zrotation Yrotation Xrotation
							JOINT LeftHand
							{
								OFFSET 3.483560 -0.000000 -0.000000
								CHANNELS 3 Zrotation Yrotation Xrotation
								JOINT LeftFingerBase
								{
									OFFSET 0.000000 0.000000 0.000000
									CHANNELS 3 Zrotation Yrotation Xrotation
									JOINT LeftHandIndex1
									{
										OFFSET 0.715260 -0.000000 -0.000000
										CHANNELS 3 Zrotation Yrotation Xrotation
										End Site
										{
											OFFSET 0.000000 0.000000 0.000000
										}
									}
								}
								JOINT LThumb
								{
									OFFSET 0.000000 0.000000 0.000000
									CHANNELS 3 Zrotation Yrotation Xrotation
									End Site
									{
										OFFSET 0.000000 0.000000 0.000000
									}
								}
							}
						}
					}
				}
				JOINT RightShoulder
				{
					OFFSET 0.000000 0.000000 0.000000
					CHANNELS 3 Zrotation Yrotation Xrotation
					JOINT RightArm
					{
						OFFSET -3.136600 1.374050 -0.404650
						CHANNELS 3 Zrotation Yrotation Xrotation
						JOINT RightForeArm
						{
							OFFSET -5.241900 -0.000000 -0.000000
							CHANNELS 3 Zrotation Yrotation Xrotation
							JOINT RightHand
							{
								OFFSET -3.444170 -0.000000 -0.000000
								CHANNELS 3 Zrotation Yrotation Xrotation
								JOINT RightFingerBase
								{
									OFFSET 0.000000 0.000000 0.000000
									CHANNELS 3 Zrotation Yrotation Xrotation
									JOINT RightHandIndex1
									{
										OFFSET -0.622530 -0.000000 -0.000000
										CHANNELS 3 Zrotation Yrotation Xrotation
										End Site
										{
											OFFSET 0.000000 0.000000 0.000000
										}
									}
								}
								JOINT RThumb
								{
									OFFSET 0.000000 0.000000 0.000000
									CHANNELS 3 Zrotation Yrotation Xrotation
									End Site
									{
										OFFSET 0.000000 0.000000 0.000000
									}
								}
							}
						}
					}
				}
			}
		}
	}
}
}
MOTION
Frames: 17
Frame Time: 0.008333
4.123942 16.924368 -3.231232 124.170103 -77.754811 -142.373285 -10.581075 0.260378 1.333117 -2.493529 0.961390 -1.937872 -4.120697 1.019679 1.889881 8.719860 -20.457112 -8.978176 -0.587251 -0.017848 -0.422173 0.000000 0.000000 0.000000 1.041290 31.353783 0.237440 -73.407782 29.502770 -38.667637 -4.931227 -9.747728 0.005104 -1.148065 -1.291425 0.011022 -0.196026 0.012038 -0.000000 0.000000 0.000000 0.000000 0.000000 0.000000 0.000000 8.232610 -14.856063 -2.617312 70.949757 -7.361842 13.438286 1.442743 50.960914 0.003938 -1.471672 6.403351 -0.087044 0.059266 -0.163541 -0.000000 0.000000 0.000000 0.000000 0.000000 0.000000 0.000000 
4.118957 16.907749 -3.235291 123.674817 -77.798088 -142.113636 -10.278733 0.040992 1.385942 -2.394664 0.730739 -1.920250 -4.027374 0.782177 1.872456 8.653052 -20.456394 -8.993967 -0.619053 -0.020166 -0.425813 0.000000 0.000000 0.000000 0.919982 31.081810 0.263155 -73.617410 29.163337 -39.053887 -4.929967 -9.406730 0.004992 -1.445970 -1.251298 0.014019 -0.192627 0.013756 -0.000000 0.000000 0.000000 0.000000 0.000000 0.000000 0.000000 8.344497 -14.957989 -2.623865 70.605862 -7.354098 13.394177 1.442135 50.773018 0.003995 -1.368070 6.312743 -0.079865 0.057669 -0.160540 -0.000000 0.000000 0.000000 0.000000 0.000000 0.000000 0.000000 
4.114494 16.889004 -3.241153 122.851559 -77.917972 -141.597372 -10.013889 -0.191375 1.527205 -2.304412 0.488801 -1.886430 -3.939382 0.535666 1.846498 8.587585 -20.464520 -8.987987 -0.653583 -0.022962 -0.424301 0.000000 0.000000 0.000000 0.850491 30.708585 0.281628 -73.748195 28.789926 -39.202361 -4.925888 -9.152026 0.004867 -1.667581 -1.205327 0.015918 -0.189734 0.015122 -0.000000 0.000000 0.000000 0.000000 0.000000 0.000000 0.000000 8.456434 -15.081633 -2.628143 70.316819 -7.357290 13.284330 1.442073 50.556817 0.004007 -1.295565 6.225537 -0.074682 0.056472 -0.157639 -0.000000 0.000000 0.000000 0.000000 0.000000 0.000000 0.000000 
4.110164 16.869208 -3.248674 121.738617 -78.097573 -140.842353 -9.784439 -0.428515 1.730175 -2.224203 0.243594 -1.841752 -3.858423 0.287800 1.813559 8.524063 -20.492125 -8.958339 -0.690668 -0.026279 -0.416951 0.000000 0.000000 0.000000 0.834324 30.242112 0.290163 -73.791183 28.387557 -39.120600 -4.918944 -8.993573 0.004740 -1.797135 -1.158935 0.016720 -0.187484 0.016213 -0.000000 0.000000 0.000000 0.000000 0.000000 0.000000 0.000000 8.570825 -15.234739 -2.630669 70.082571 -7.379831 13.102130 1.443208 50.314629 0.003982 -1.260431 6.147117 -0.071698 0.055802 -0.154956 -0.000000 0.000000 0.000000 0.000000 0.000000 0.000000 0.000000 
4.105964 16.849580 -3.257767 120.355501 -78.328251 -139.840587 -9.586058 -0.665916 1.961719 -2.154522 -0.000843 -1.792846 -3.786090 0.042028 1.775463 8.465144 -20.549877 -8.904854 -0.730652 -0.030183 -0.403495 0.000000 0.000000 0.000000 0.866745 29.691524 0.286557 -73.740179 27.961871 -38.821804 -4.908943 -8.949122 0.004605 -1.828063 -1.113571 0.016424 -0.185909 0.017077 -0.000000 0.000000 0.000000 0.000000 0.000000 0.000000 0.000000 8.694997 -15.425895 -2.632093 69.898289 -7.425029 12.846387 1.446073 50.048498 0.003925 -1.265391 6.081996 -0.071211 0.055736 -0.152575 -0.000000 0.000000 0.000000 0.000000 0.000000 0.000000 0.000000 
4.101596 16.831328 -3.268305 118.751583 -78.598190 -138.612248 -9.411201 -0.898774 2.189798 -2.094793 -0.240408 -1.745921 -3.724003 -0.198159 1.735069 8.414046 -20.642639 -8.828778 -0.774095 -0.034733 -0.384025 0.000000 0.000000 0.000000 0.941915 29.075257 0.269420 -73.589312 27.513677 -38.332861 -4.895690 -9.028177 0.004472 -1.761740 -1.072447 0.015231 -0.184984 0.017805 -0.000000 0.000000 0.000000 0.000000 0.000000 0.000000 0.000000 8.837134 -15.656887 -2.633484 69.755703 -7.496561 12.517647 1.451097 49.764454 0.003847 -1.307456 6.031831 -0.072920 0.056266 -0.150542 -0.000000 0.000000 0.000000 0.000000 0.000000 0.000000 0.000000 
4.096964 16.815475 -3.280110 116.993427 -78.890693 -137.204387 -9.253180 -1.121943 2.390660 -2.044159 -0.470529 -1.705434 -3.673040 -0.428675 1.694643 8.372878 -20.771540 -8.732357 -0.821261 -0.039938 -0.358972 0.000000 0.000000 0.000000 1.050209 28.413781 0.238204 -73.337701 27.044857 -37.685884 -4.878969 -9.241396 0.004342 -1.609068 -1.036693 0.013342 -0.184609 0.018465 -0.000000 0.000000 0.000000 0.000000 0.000000 0.000000 0.000000 9.002496 -15.924672 -2.635672 69.646039 -7.594787 12.122004 1.458491 49.468741 0.003763 -1.381382 5.997389 -0.076525 0.057335 -0.148889 -0.000000 0.000000 0.000000 0.000000 0.000000 0.000000 0.000000 
4.091990 16.802611 -3.292878 115.183197 -79.182108 -135.708997 -9.106067 -1.328857 2.549599 -2.001516 -0.685072 -1.673965 -3.633141 -0.643720 1.656166 8.341497 -20.932551 -8.618940 -0.871887 -0.045734 -0.329147 0.000000 0.000000 0.000000 1.181342 27.731591 0.193546 -72.989560 26.555687 -36.916734 -4.858537 -9.593365 0.004223 -1.387410 -1.008634 0.011055 -0.184649 0.019131 -0.000000 0.000000 0.000000 0.000000 0.000000 0.000000 0.000000 9.191120 -16.219660 -2.639184 69.560623 -7.719110 11.668153 1.468277 49.169230 0.003676 -1.478875 5.976959 -0.081626 0.058837 -0.147627 -0.000000 0.000000 0.000000 0.000000 0.000000 0.000000 0.000000 
4.086608 16.793059 -3.306331 113.413885 -79.447599 -134.215488 -8.970702 -1.514709 2.659715 -1.966661 -0.879186 -1.652608 -3.603219 -0.838648 1.620689 8.318896 -21.118863 -8.492446 -0.925314 -0.052008 -0.295584 0.000000 0.000000 0.000000 1.324325 27.049439 0.137114 -72.552678 26.050357 -36.058214 -4.834394 -10.090261 0.004121 -1.120997 -0.988630 0.008471 -0.184935 0.019844 -0.000000 0.000000 0.000000 0.000000 0.000000 0.000000 0.000000 9.399914 -16.529951 -2.644066 69.491251 -7.867107 11.170919 1.480167 48.874044 0.003595 -1.591853 5.968647 -0.087625 0.060655 -0.146748 -0.000000 0.000000 0.000000 0.000000 0.000000 0.000000 0.000000 
4.080662 16.786739 -3.319947 111.819978 -79.662537 -132.860273 -8.845167 -1.673923 2.721807 -1.938434 -1.047327 -1.641021 -3.581211 -1.007999 1.589089 8.300509 -21.319176 -8.357261 -0.980130 -0.058567 -0.259493 0.000000 0.000000 0.000000 1.469728 26.389579 0.071767 -72.039366 25.528854 -35.140801 -4.806451 -10.726969 0.004049 -0.835255 -0.979418 0.005989 -0.185292 0.020664 -0.000000 0.000000 0.000000 0.000000 0.000000 0.000000 0.000000 9.617937 -16.838917 -2.650011 69.432349 -8.037508 10.644218 1.493733 48.593230 0.003523 -1.710565 5.968179 -0.094021 0.062639 -0.146224 -0.000000 0.000000 0.000000 0.000000 0.000000 0.000000 0.000000 
4.074040 16.783277 -3.333147 110.513405 -79.810892 -131.759588 -8.728088 -1.803810 2.741362 -1.915448 -1.186709 -1.638102 -3.564538 -1.149013 1.561433 8.281224 -21.521319 -8.218241 -1.034667 -0.065188 -0.222223 0.000000 0.000000 0.000000 1.609324 25.768714 0.001160 -71.463886 24.993071 -34.187676 -4.774683 -11.496944 0.004016 -0.556410 -0.982358 0.003613 -0.185547 0.021632 -0.000000 0.000000 0.000000 0.000000 0.000000 0.000000 0.000000 9.832367 -17.130551 -2.656277 69.378646 -8.229117 10.105123 1.508320 48.336891 0.003461 -1.826554 5.971896 -0.100414 0.064648 -0.146019 -0.000000 0.000000 0.000000 0.000000 0.000000 0.000000 0.000000 
4.066838 16.782157 -3.345621 109.530739 -79.887103 -130.954019 -8.622121 -1.906470 2.726948 -1.896918 -1.299038 -1.642374 -3.550577 -1.263359 1.536483 8.257961 -21.718997 -8.080253 -1.087395 -0.071662 -0.185107 0.000000 0.000000 0.000000 1.731959 25.187973 -0.071180 -70.841044 24.456104 -33.214020 -4.739310 -12.407477 0.004006 -0.313477 -0.990507 0.001438 -0.185514 0.022690 -0.000000 0.000000 0.000000 0.000000 0.000000 0.000000 0.000000 10.033312 -17.397563 -2.661228 69.325389 -8.433856 9.580147 1.523203 48.108683 0.003407 -1.938168 5.979833 -0.106606 0.066632 -0.146093 -0.000000 0.000000 0.000000 0.000000 0.000000 0.000000 0.000000 
4.058618 16.782462 -3.356170 109.010644 -79.894932 -130.587292 -8.504386 -1.979454 2.686028 -1.877056 -1.382883 -1.652195 -3.536685 -1.349676 1.515884 8.220942 -21.886819 -7.947622 -1.135982 -0.077721 -0.149341 0.000000 0.000000 0.000000 1.849036 24.679932 -0.139790 -70.185716 23.886916 -32.232961 -4.699519 -13.393275 0.004082 -0.110696 -1.023098 -0.000336 -0.185135 0.024105 -0.000000 0.000000 0.000000 0.000000 0.000000 0.000000 0.000000 10.199190 -17.612029 -2.665978 69.272157 -8.668650 9.060304 1.537433 47.932524 0.003362 -2.024355 5.978287 -0.111298 0.068242 -0.146348 0.000000 0.000000 0.000000 0.000000 0.000000 0.000000 0.000000 
4.049735 16.783803 -3.365219 108.805083 -79.850825 -130.508379 -8.385726 -2.034053 2.628203 -1.856865 -1.448657 -1.666192 -3.521729 -1.418250 1.496511 8.174624 -22.034551 -7.825196 -1.180005 -0.083256 -0.116148 0.000000 0.000000 0.000000 1.944541 24.213522 -0.202477 -69.508877 23.321836 -31.245182 -4.655821 -14.492803 0.004173 0.026486 -1.056186 -0.001605 -0.184256 0.025621 -0.000000 0.000000 0.000000 0.000000 0.000000 0.000000 0.000000 10.333618 -17.788498 -2.667359 69.213031 -8.911671 8.588578 1.550520 47.797520 0.003322 -2.097546 5.976889 -0.115190 0.069650 -0.146753 0.000000 0.000000 0.000000 0.000000 0.000000 0.000000 0.000000 
4.040089 16.785517 -3.372350 108.876022 -79.775933 -130.678572 -8.253295 -2.075641 2.560122 -1.832930 -1.502249 -1.683102 -3.504788 -1.474957 1.478249 8.117982 -22.154665 -7.716569 -1.218441 -0.088129 -0.086440 0.000000 0.000000 0.000000 2.025221 23.790140 -0.255842 -68.819213 22.753529 -30.252497 -4.607753 -15.673610 0.004288 0.098587 -1.092591 -0.002374 -0.182858 0.027319 -0.000000 0.000000 0.000000 0.000000 0.000000 0.000000 0.000000 10.430886 -17.922144 -2.665202 69.146073 -9.165189 8.170579 1.561895 47.711079 0.003289 -2.150668 5.971920 -0.117984 0.070727 -0.147228 -0.000000 0.000000 0.000000 0.000000 0.000000 0.000000 0.000000 
4.029662 16.787219 -3.377587 109.124279 -79.695211 -130.994702 -8.101493 -2.112048 2.487000 -1.803550 -1.551664 -1.701952 -3.485865 -1.527750 1.460507 8.054232 -22.249135 -7.624682 -1.251111 -0.092284 -0.060917 0.000000 0.000000 0.000000 2.094837 23.397511 -0.297894 -68.122549 22.186682 -29.254786 -4.555068 -16.920779 0.004418 0.108898 -1.127624 -0.002444 -0.180952 0.029185 -0.000000 0.000000 0.000000 0.000000 0.000000 0.000000 0.000000 10.493880 -18.019553 -2.658823 69.068323 -9.423963 7.817637 1.571317 47.672112 0.003267 -2.183237 5.964643 -0.119677 0.071456 -0.147709 -0.000000 0.000000 0.000000 0.000000 0.000000 0.000000 0.000000 
4.018619 16.788529 -3.381056 109.442483 -79.634418 -131.348323 -7.927172 -2.150792 2.412431 -1.767829 -1.604531 -1.722064 -3.465477 -1.584203 1.442400 7.988245 -22.322945 -7.551122 -1.278292 -0.095722 -0.039944 0.000000 0.000000 0.000000 2.158577 23.020789 -0.327695 -67.421844 21.626900 -28.251815 -4.497419 -18.219709 0.004545 0.066972 -1.157292 -0.002012 -0.178579 0.031217 -0.000000 0.000000 0.000000 0.000000 0.000000 0.000000 0.000000 10.529419 -18.090552 -2.647893 68.977323 -9.681930 7.537511 1.578693 47.675896 0.003260 -2.195556 5.957508 -0.120172 0.071837 -0.148145 0.000000 0.000000 0.000000 0.000000 0.000000 0.000000 0.000000 
